<svg width="86" height="44" viewBox="0 0 86 44" fill="none" xmlns="http://www.w3.org/2000/svg">
<path d="M85.864 20.4709C84.0376 35.8393 64.1469 46.1077 41.439 43.4075C18.73 40.7085 1.8007 26.0631 3.62825 10.6947C3.62825 10.686 3.63042 10.6773 3.63151 10.6676C3.81253 9.1663 5.12412 8.065 6.63516 8.08885C15.0315 8.21675 23.4062 9.7072 31.3289 12.4951C38.8299 15.1346 45.9472 18.9328 53.6932 20.7398C55.2736 21.1083 56.9472 21.389 58.4962 20.9089C60.4798 20.2942 61.8727 18.5686 63.2082 16.9817C67.2904 12.1299 72.0229 7.72247 77.6303 4.76109C77.7419 4.70255 77.8525 4.64402 77.9652 4.58657C79.2996 3.90042 80.9309 4.32317 81.7829 5.55888C84.9546 10.157 86.483 15.2744 85.8651 20.4709H85.864Z" fill="#FFFFE7"/>
<path d="M83.0304 16.7498C81.2039 32.1182 61.3133 42.3865 38.6054 39.6864C15.8975 36.9873 -1.03182 22.3419 0.795734 6.9746C0.795734 6.96593 0.797902 6.95725 0.798986 6.9475C0.980008 5.44621 2.2916 4.34491 3.80264 4.36875C12.199 4.49666 20.5737 5.98711 28.4964 8.77506C35.9974 11.4145 43.1147 15.2127 50.8606 17.0197C52.4411 17.3882 54.1147 17.669 55.6637 17.1888C57.6473 16.5742 59.0402 14.8485 60.3756 13.2616C64.4578 8.40976 69.1904 4.00238 74.7977 1.04099C74.9094 0.98246 75.02 0.923927 75.1327 0.866477C76.467 0.180329 78.0984 0.603074 78.9504 1.83879C82.1221 6.43695 83.6505 11.5543 83.0326 16.7508L83.0304 16.7498Z" fill="#FA5419"/>
<path d="M38.5415 40.2251C27.4526 38.907 17.3674 34.7392 10.145 28.4912C6.61451 25.4366 3.95772 22.0492 2.24831 18.4201C0.46845 14.6414 -0.201438 10.7695 0.257077 6.91064L0.260329 6.88354C0.47387 5.11234 2.00009 3.79858 3.8103 3.82677C12.3129 3.95684 20.6789 5.44946 28.6753 8.2645C31.4589 9.2444 34.2273 10.3977 36.9047 11.5142C41.4454 13.4068 46.1401 15.3634 50.9832 16.4939C52.4953 16.8462 54.0887 17.1118 55.5022 16.6728C57.2593 16.1286 58.5557 14.5862 59.8088 13.0935L59.9595 12.9136C64.6942 7.2846 69.4647 3.24468 74.5431 0.561876C74.6558 0.502259 74.7696 0.443725 74.8824 0.385191C76.4487 -0.420192 78.3879 0.0730099 79.3938 1.53202C82.7367 6.3795 84.1806 11.6638 83.5681 16.8148C83.1096 20.6737 81.5498 24.2811 78.9331 27.5373C76.4205 30.6635 73.044 33.3354 68.8957 35.4763C60.4093 39.8576 49.6293 41.5443 38.5393 40.2262L38.5415 40.2251ZM11.7915 5.44404C9.14447 5.12969 6.47576 4.95083 3.79404 4.90964C2.5399 4.89013 1.48304 5.79416 1.3367 7.01144L1.33345 7.03746C-0.455085 22.0839 16.2943 36.4887 38.6694 39.1487C61.0445 41.8088 80.7043 31.7323 82.4929 16.6858C83.0739 11.8004 81.694 6.77189 78.5028 2.14554C77.8047 1.13421 76.4617 0.790592 75.3799 1.34775C75.2693 1.40411 75.1599 1.46156 75.0504 1.51901C70.0988 4.13461 65.4335 8.08998 60.7898 13.6095L60.6391 13.7884C59.3481 15.3254 57.8837 17.0674 55.8231 17.7058C54.1625 18.2207 52.3967 17.9345 50.7361 17.5475C45.8051 16.3975 41.0682 14.4225 36.4863 12.5136C33.823 11.4037 31.0687 10.2557 28.3143 9.28668C22.9509 7.39842 17.4183 6.11392 11.7904 5.44512L11.7915 5.44404Z" fill="#FFFFE7"/>
<path d="M10.2667 26.9628C10.0586 27.0213 7.99476 23.867 7.09616 22.2129C4.87187 17.5692 3.92666 12.906 4.41119 7.76803C4.65725 5.83424 5.55152 5.44293 5.32063 5.42451C5.03013 5.40066 4.02313 5.96323 3.76406 7.30301C3.66 7.83957 3.65242 8.10622 3.60906 8.63845C3.55703 9.55548 3.57871 14.468 3.0389 14.3618C2.35166 14.2274 1.77174 11.8654 1.68503 10.7359C1.45306 7.73443 2.73213 4.86193 6.36991 4.92914C7.53517 4.99526 8.11725 5.03862 9.28034 5.14701C9.65864 5.7085 8.55192 7.1751 8.34814 7.92303C8.20072 8.46502 8.00344 11.2703 7.23057 11.576C6.33847 11.9283 6.09675 10.4931 6.0328 9.84381C5.83768 8.5875 5.52442 7.18377 6.08483 5.97407C6.21382 5.71067 6.23983 5.61203 6.16287 5.60444C5.93199 5.58168 4.97918 5.92421 4.90006 7.71275C4.809 12.829 5.96451 17.541 8.00018 22.2161C8.44244 23.1484 10.2657 26.9628 10.2657 26.9628H10.2667Z" fill="#FFFFE7"/>
<path d="M11.9228 20.6064C11.6897 16.5936 11.9727 12.6794 12.7683 8.73924C13.2842 6.86291 14.0766 6.14641 13.6029 6.29491C12.3575 6.68622 11.5824 8.2352 11.2496 9.59124C10.5603 12.248 10.1158 14.8571 9.95648 17.5985C9.88169 19.6471 9.54241 19.8867 9.34947 19.761C8.46929 19.1854 8.20697 17.2028 8.0899 15.9801C7.97175 14.739 8.16253 13.474 8.61346 12.3055C9.29527 10.5635 10.0443 8.89967 11.1413 7.38429C12.1927 6.48569 14.5319 5.28791 14.8592 5.60334C15.0067 5.74534 13.7926 7.76259 13.513 8.3978C12.5775 13.8328 12.894 19.4325 13.8327 24.8437C14.0148 25.8051 14.7855 30.3914 14.5666 30.3881C14.2024 30.3838 13.2203 27.9373 12.8572 26.6723C12.6848 26.0523 12.6046 25.7379 12.4583 25.1027C12.0702 23.4237 11.8491 23.1028 11.8198 23.9136C11.7873 24.8209 11.7992 25.2621 11.887 26.1141C11.9857 27.1005 12.4702 28.8912 12.1298 28.5703C11.099 27.6002 10.3608 25.9081 9.83508 24.5694C9.58685 23.9385 8.59828 21.9809 9.74728 21.7012C10.4258 21.9495 10.7716 22.072 11.4751 22.3137C11.8653 22.4579 12.0464 22.24 11.9217 20.6075L11.9228 20.6064Z" fill="#FFFFE7"/>
<path d="M20.9634 15.3743C20.5656 18.2533 20.2578 21.1279 20.0605 24.0275C20.0052 25.0703 19.8144 33.3734 19.2323 33.2314C18.531 33.0602 17.9771 29.6219 17.6584 28.1433C16.7576 23.6319 16.1084 19.1107 15.7929 14.519C15.7095 13.1045 15.6834 12.5798 15.5306 12.5386C15.3192 12.4812 15.1642 12.8443 15.0829 13.6215C15.0157 14.2578 14.9637 15.1922 15.0374 16.2826C15.2488 19.1064 15.5891 21.8932 16.0531 24.6866C16.2731 25.9787 16.4108 27.2957 16.569 28.5791C16.6839 29.5145 16.6341 31.6846 16.5333 31.6901C16.129 31.7096 15.0309 27.4659 14.7534 25.5928C14.1659 20.3063 14.3719 15.0946 15.2358 9.85041C15.6867 8.31769 18.0953 5.80615 18.6557 6.27334C18.7706 6.36873 18.5711 6.66465 18.428 7.08739C17.9793 8.40441 17.73 8.89761 17.5511 10.4726C17.5945 13.5782 17.7939 16.6642 18.1028 19.7535C18.3771 22.2813 18.4974 24.8188 18.5158 27.3618C18.5115 28.0891 18.5147 28.4479 18.531 29.1536C18.57 30.734 18.8573 31.6001 19.0838 31.7117C19.435 31.8852 19.5152 30.6982 19.4719 28.8858C19.447 27.8377 19.3906 26.7819 19.3364 25.7315C19.1315 21.6157 19.1456 17.5184 19.3808 13.4036C19.5391 11.4525 21.1921 6.41859 22.7259 7.21747C23.1281 7.42667 22.5894 8.36972 22.2728 9.07971C21.4035 11.0352 21.2723 13.2768 20.9612 15.3721L20.9634 15.3743Z" fill="#FFFFE7"/>
<path d="M23.4434 21.5322C22.8732 22.653 22.3182 23.7749 21.7763 24.9098C21.2603 26.1195 21.0132 28.4327 21.7849 29.5676C21.8673 29.4895 21.9486 29.4115 22.031 29.3334C23.3328 26.81 24.7658 24.3754 26.2443 21.9517C27.4389 19.2765 27.3999 24.228 27.3706 24.5337C27.0552 26.8729 26.7441 29.212 26.4405 31.5523C26.3051 32.4607 25.5582 35.9662 25.0368 35.8079C24.2976 35.5825 24.8309 31.6325 25.1636 30.193C25.6601 28.4435 26.1869 26.7027 26.7224 24.9651C27.0508 23.9147 26.9641 23.0259 26.782 22.9619C26.6248 22.9066 26.4807 22.9478 25.9636 24.5163C25.233 26.7254 24.5328 28.94 23.8943 31.1773C23.6927 31.9003 22.8841 34.8877 22.2727 34.6763C21.6397 34.4573 21.398 32.3479 21.2603 31.3236C20.8289 28.1097 20.9221 24.8025 21.2072 21.6319C21.4847 18.5448 22.393 7.15127 27.8876 8.76745C29.816 9.33437 28.6117 13.7222 28.4968 14.9558C28.4426 15.539 28.2952 18.2359 27.4952 18.5437C26.6519 18.8678 26.6086 17.7795 26.6498 17.0294C26.6064 15.1672 26.4243 13.2117 26.7256 11.3679C27.0215 9.84166 26.9674 9.19128 26.0156 9.75494C24.3615 10.7348 24.2564 13.2659 24.2997 14.9872C24.316 15.5671 24.3247 15.8566 24.3442 16.4365C24.4298 18.1437 24.1913 19.9865 23.4434 21.5343V21.5322Z" fill="#FFFFE7"/>
<path d="M30.6063 15.8393C30.448 16.9026 30.5337 17.708 31.0084 18.1882C31.9395 19.0879 32.8739 19.9843 33.8159 20.8721C34.5953 21.865 34.2755 23.7002 34.0695 24.8145C33.8452 26.0328 33.4571 27.4734 32.4707 28.3276C31.1602 29.3238 29.854 30.3253 28.5565 31.3399C28.1088 31.6955 27.943 32.3046 27.8097 33.071C27.6926 33.7452 27.6666 35.0265 28.1164 34.6384C29.4529 33.4807 30.8144 32.3502 32.1867 31.2348C33.095 30.4966 33.2782 31.4028 32.8468 33.2054C32.5813 34.3176 32.165 35.5251 31.3434 36.3576C30.7103 36.9993 29.4681 37.3288 28.5533 37.0307C26.8731 36.4833 27.3013 33.8656 27.4585 32.6277C27.5907 31.586 28.0102 30.3871 28.5587 29.469C29.7857 27.3932 31.0236 25.325 32.2463 23.2482C32.7536 22.3756 32.7991 20.9762 32.2962 21.5312C31.5775 22.3127 30.8512 23.0877 30.1261 23.8638C28.5489 25.5082 29.1039 20.0299 29.1418 19.7665C29.5494 16.9341 31.0615 10.0325 35.612 11.7755C37.1783 12.376 36.477 14.2437 36.1692 15.4198C35.8917 16.4832 35.689 17.5639 35.0874 17.0782C33.9124 16.1558 32.746 15.2247 31.5959 14.2719C31.1483 13.9077 30.7569 14.8106 30.6041 15.8382L30.6063 15.8393Z" fill="#FFFFE7"/>
<path d="M36.8462 38.8582C36.5839 38.856 36.4018 38.3411 36.688 36.4529C37.1205 33.2714 37.2755 30.0976 37.2993 26.888C37.3091 25.9016 37.3557 25.1547 37.4467 24.6789C37.6158 23.7944 37.8326 23.5993 38.1231 23.8702C38.9112 24.5802 39.7122 25.2794 40.5241 25.9612C41.7587 26.6679 42.1891 24.0675 42.2834 23.3803C42.4069 22.4871 42.6595 20.6964 41.6883 20.1002C40.6054 19.7599 40.0667 19.581 38.9935 19.2157C37.4695 19.1528 37.1356 22.4275 36.9503 23.4302C36.8289 24.0816 36.753 24.7938 36.6966 25.4604C36.4549 28.1085 36.1481 30.7447 35.6712 33.3625C35.4555 34.5679 34.1136 38.4853 33.2995 38.2175C32.5429 37.9682 33.7016 33.7159 34.0019 32.5777C35.2355 27.9004 36.2977 23.1277 37.7242 18.4905C38.2499 16.7811 39.6342 13.4642 41.9571 14.3422C44.0177 15.1216 43.2015 21.1105 42.9771 22.8231C42.705 24.8968 42.0785 27.0506 40.3799 28.4142C39.6277 29.0158 39.2494 29.3139 38.4949 29.9025C38.2228 30.103 37.9638 30.4434 37.7535 31.1826C37.553 31.8916 37.6115 32.1615 37.9291 32.2362C38.5816 32.4151 38.909 32.5007 39.567 32.6655C40.3756 33.5576 39.7827 34.8237 39.426 35.7927C39.0412 36.8355 37.9638 38.8668 36.8484 38.8582H36.8462Z" fill="#FFFFE7"/>
<path d="M44.4713 20.4092C44.8421 19.1008 45.3158 17.8348 46.0962 16.7118C46.4723 16.1774 46.8062 16.0636 47.0403 16.1373C47.4533 16.2652 47.4371 17.0218 47.2029 18.8179C47.0674 19.8564 46.9666 21.0379 46.2295 21.8714C45.797 22.2823 45.5759 22.4882 45.1261 22.9012C44.9949 23.0063 44.9049 23.2968 44.8583 23.634C44.7803 24.2085 44.9266 24.2453 45.0122 24.2301C45.2691 24.1803 45.3981 24.1553 45.6539 24.1044C47.269 24.5803 45.7222 28.2571 45.2887 29.0635C44.1115 31.1664 42.8313 33.1728 41.433 35.1348C41.0894 35.6031 40.9517 35.809 40.8303 36.0735C40.5875 36.6025 40.5073 37.0545 40.762 36.8702C41.4124 36.39 41.7398 36.145 42.3934 35.6486C42.9625 35.2193 43.3549 35.5835 42.5874 36.9342C42.0704 37.8436 40.8151 39.4771 40.0098 39.2452C39.1003 38.9839 40.7024 35.5261 41.1338 34.6166C42.5137 31.742 43.6118 28.8153 44.4735 25.7444C44.5342 25.519 44.5787 25.3174 44.6079 25.1483C44.7402 24.3711 44.6144 24.0621 44.3315 23.9906C44.1787 23.9526 44.1028 23.9331 43.951 23.8941C43.7299 23.8377 43.731 23.3424 43.808 22.7299C43.8763 22.1869 44.1754 21.3219 44.4713 20.407V20.4092Z" fill="#FFFFE7"/>
<path d="M45.3598 33.2227C46.3994 30.5096 47.1267 27.8094 47.6156 24.9456C47.7738 23.7532 48.2009 16.2641 50.0176 16.9666C50.887 17.3037 50.8599 20.69 50.9867 21.6232C51.455 25.5429 51.3986 29.3161 50.4859 33.1663C50.2073 34.2059 50.1065 34.5571 50.2561 34.5549C50.4642 34.5516 50.7265 34.2644 51.0246 33.6726C51.2685 33.188 51.5048 32.5647 51.7682 31.6282C52.385 29.2056 52.6896 26.8458 52.7546 24.3494C52.7525 23.0714 52.6874 21.7739 52.7492 20.51C52.7969 19.5225 53.3183 17.4392 54.0847 17.4554C54.9702 17.4738 54.7383 21.7403 54.7058 22.6747C54.1779 27.6858 52.6094 32.1398 49.8128 36.3337C48.9955 37.409 46.7766 39.6788 46.4958 39.5184C46.2877 39.3991 47.3034 37.0957 47.6351 36.3055C48.4079 34.2275 48.7754 32.0824 49.016 29.8884C49.2339 27.4495 49.4626 25.0095 49.7228 22.575C49.8095 21.84 49.8431 21.4737 49.8919 20.7463C50.0025 19.1193 49.8594 18.3052 49.6437 18.3248C48.8502 18.3952 48.6237 20.2 48.5597 21.1821C48.4925 22.2053 48.4752 23.2817 48.4426 24.331C48.3115 27.8387 47.7998 31.1957 46.7126 34.5365C46.1587 36.118 44.0829 39.7189 43.0358 39.4642C42.341 39.2951 44.9133 34.2676 45.3588 33.2249L45.3598 33.2227Z" fill="#FFFFE7"/>
<path d="M56.4476 21.6092C56.4292 22.5674 56.556 23.1668 56.9972 23.2145C58.0356 23.2861 58.5061 23.2546 59.4383 23.272C60.1591 24.176 59.7645 25.5114 59.5543 26.552C59.2638 27.998 58.6361 29.4581 57.6617 30.6245C56.2005 32.2385 54.6623 33.7636 52.9161 35.073C52.3091 35.5348 51.9134 36.0551 51.4668 36.673C51.0733 37.216 50.4923 38.1656 51.1839 37.7179C53.1795 36.3673 54.9908 34.8931 56.7273 33.2195C57.8242 32.1225 57.8156 32.7837 56.8032 34.5452C56.0953 35.7776 55.1512 36.9602 54.0369 37.8339C53.0613 38.5992 51.6923 39.3308 50.5671 39.3308C49.0756 39.3308 50.8706 36.9992 51.2294 36.4757C51.9004 35.498 52.6776 34.5527 53.4646 33.6422C55.3192 31.4168 56.8042 29.1199 58.0736 26.5152C58.5711 25.4247 58.6188 24.1857 58.1798 25.0366C57.5652 26.2149 56.8574 27.3444 56.0715 28.4164C54.6699 30.6082 55.2347 26.2041 55.3138 25.6881C55.9089 21.8357 56.5864 17.5909 58.9342 14.4832C60.1147 12.9212 60.4908 15.6355 60.5168 16.2945C60.5602 17.4012 60.5786 18.664 60.0811 18.7952C59.0881 19.102 58.0822 19.4326 57.0601 19.6288C56.6384 19.7133 56.4639 20.6856 56.4465 21.6102L56.4476 21.6092Z" fill="#FFFFE7"/>
<path d="M66.6889 17.6494C66.7301 19.257 65.8022 22.988 65.7133 22.9858C65.554 22.9815 65.464 20.8298 65.503 19.8651C65.5637 17.4641 65.387 15.1563 65.0272 12.7814C64.728 10.8368 64.3703 10.1127 64.1589 11.537C63.7145 14.3954 63.2245 17.1866 62.43 19.9713C62.0896 21.0021 61.8371 22.046 61.7688 23.1267C61.6799 24.5207 61.8414 24.5543 62.1742 23.8128C62.8777 22.2574 63.4793 20.6466 63.9638 19.0087C63.954 18.5123 64.1491 18.2261 64.5491 18.1481C65.2786 19.219 64.986 20.9078 64.909 22.0991C64.8396 22.7105 64.7974 23.0129 64.6976 23.6123C64.4559 25.0713 64.4971 25.1949 64.7063 25.4063C64.8353 25.5526 64.8992 25.6252 65.0228 25.7737C65.1876 26.8642 64.8125 28.0208 64.4006 29.0083C63.063 32.207 59.7602 38.1016 56.634 38.4658C55.4406 38.6046 58.7619 32.245 59.1131 31.4699C59.7049 30.1638 60.9124 27.0756 61.1834 27.0951C61.4718 27.1168 60.442 30.3415 60.0745 31.0916C59.564 32.0217 59.2919 32.4726 58.7163 33.3441C58.3239 33.9381 58.0183 34.479 57.9608 34.672C57.8719 34.9733 58.0389 34.9039 58.4052 34.6221C60.0409 33.3203 61.5943 31.9566 63.1053 30.5128C63.5573 30.076 63.9248 29.3606 64.1903 28.5931C64.4689 27.7877 64.4754 27.4831 64.3128 27.3574C63.4316 26.7244 62.4625 26.1434 61.4913 25.661C61.062 24.6399 61.3374 23.3944 61.423 22.3137C61.7037 18.7529 60.8409 12.1657 63.2776 9.66066C65.2548 7.62823 66.665 16.7422 66.6889 17.6505V17.6494Z" fill="#FFFFE7"/>
<path d="M65.7253 33.329C66.5848 32.1106 67.4195 30.8651 68.2368 29.611C68.7419 28.8219 68.9847 28.4197 69.4454 27.5981C69.957 26.7558 70.4296 25.7813 70.7017 24.8437C71.0399 23.6763 70.9868 23.3078 70.6844 23.44C69.6384 23.8985 68.5945 24.3635 67.5528 24.8318C67.3024 24.9445 66.9924 25.5906 66.6488 26.6464C66.4071 27.3889 66.2326 27.9482 66.1881 28.5053C66.1177 29.3595 66.0591 29.7823 65.8922 30.6126C65.5724 31.8927 64.8364 33.0601 64.1177 34.0899C63.3492 35.1912 61.1087 37.2724 61.1043 37.2692C60.9407 37.1727 63.2896 33.4807 64.0278 32.1073C67.2135 25.8464 68.149 19.2147 66.9762 12.2936C66.7117 10.8021 66.0851 6.75567 66.5382 6.57682C66.961 6.40989 68.0547 8.92251 68.3138 10.0823C68.653 11.5988 68.7018 13.2497 68.6032 14.8041C68.536 15.8642 68.3268 16.9796 68.2921 18.0668C68.2715 18.7269 68.2986 19.1822 68.5934 19.412C69.4248 19.9811 70.2421 20.6087 70.9998 21.2721C71.1884 21.5008 71.4974 21.3024 71.6892 20.0743C71.7987 19.373 71.8594 18.3931 71.7564 17.5498C71.5787 16.2924 71.3532 15.1065 71.0562 13.8719C70.6237 12.2752 70.2497 10.6547 69.9137 9.03957C69.6514 7.77784 68.9533 4.57257 69.4985 4.25389C70.2096 3.83765 71.7239 8.23202 72.0112 9.50026C73.5385 17.863 71.8811 25.7965 67.1214 32.8369C66.174 34.0693 63.8533 36.3489 63.8197 36.3326C63.7102 36.2795 65.1865 34.0888 65.7253 33.3257V33.329Z" fill="#FFFFE7"/>
<path d="M73.8006 9.95988C73.8006 7.85158 73.6228 5.72051 73.2944 3.6393C73.1166 2.51524 73.1968 1.84643 73.3551 1.82259C74.1908 1.69576 75.1989 4.72977 75.4276 5.62946C75.8189 7.17085 76.066 8.90627 75.601 10.5387C75.33 11.4102 75.1837 11.8471 74.8726 12.7218C74.7794 12.9559 74.749 13.4015 74.7523 13.8741C74.7577 14.6773 74.878 14.6177 74.9485 14.5396C75.162 14.2936 75.2683 14.17 75.4818 13.925C77.1706 13.7722 75.4048 19.7285 75.1306 20.5437C73.7778 23.93 72.0652 27.0377 69.9655 30.0186C69.4398 30.7383 69.2078 31.0429 68.9574 31.4071C68.4566 32.1345 68.1054 32.6884 68.4382 32.3534C69.1569 31.6315 69.8604 30.889 70.5433 30.1335C71.2609 29.3454 71.5318 29.5481 69.9601 31.5535C68.874 32.9399 66.1662 35.4449 66.0741 35.4026C65.8996 35.3246 69.1786 30.7665 69.9395 29.5742C72.308 25.5765 73.8385 21.4542 74.581 16.8625C74.6266 16.5352 74.6569 16.2458 74.6732 16.0095C74.7458 14.919 74.5951 14.6047 74.3491 14.7185C74.2168 14.7792 74.1507 14.8106 74.0184 14.8724C73.8266 14.9624 73.7702 14.325 73.7485 13.4914C73.7193 12.3273 73.8027 11.1381 73.8017 9.96097L73.8006 9.95988Z" fill="#FFFFE7"/>
<path d="M81.7884 17.3828C81.3408 20.3279 77.1957 27.2024 76.4066 26.8989C76.0629 26.7667 77.2889 23.3847 77.6575 22.1858C78.2471 20.0147 78.4412 17.8272 78.4661 15.5878C78.4412 14.119 78.0639 14.0334 77.6715 15.6225C77.2997 17.1292 77.0233 18.6998 76.812 20.251C76.4998 22.1999 76.0261 24.0047 75.3237 25.8475C74.5476 27.6566 73.4582 29.2619 72.2062 30.7014C71.0941 31.9805 68.305 34.3132 68.305 34.3132C68.2324 34.2623 71.1537 30.6559 72.0122 29.4701C75.7616 23.7467 77.5458 17.5617 77.2174 10.7121C77.1057 9.47207 75.3681 2.46643 76.6916 1.85291C77.2922 2.04693 77.5783 2.22687 78.0108 2.71791C81.034 6.81961 82.5114 12.6188 81.7863 17.3839L81.7884 17.3828ZM78.7154 13.3342C79.4048 16.0962 79.678 18.6868 79.5208 21.5279C79.3723 21.8704 79.4211 22.136 79.665 22.3235C80.711 21.4151 80.9364 19.6071 81.1467 18.341C81.4112 14.932 81.0318 11.756 80.1712 8.45314C79.4872 6.06409 79.2736 5.69771 79.2032 6.40121C79.11 7.37785 78.9658 7.96428 78.5734 9.2737C78.4379 9.74848 78.3685 10.2092 78.4195 11.1956C78.4607 11.9934 78.5409 12.7034 78.7143 13.3331L78.7154 13.3342Z" fill="#FFFFE7"/>
</svg>
