<svg width="41" height="41" viewBox="0 0 41 41" fill="none" xmlns="http://www.w3.org/2000/svg">
<path d="M29.3025 25.7862H27.4505L26.7942 25.1532C29.1711 22.3966 30.4774 18.8771 30.4746 15.2373C30.4746 12.2236 29.5809 9.27766 27.9066 6.77191C26.2323 4.26615 23.8526 2.31315 21.0683 1.15988C18.2841 0.00660208 15.2204 -0.295147 12.2646 0.292787C9.3089 0.880721 6.59387 2.33193 4.4629 4.4629C2.33193 6.59387 0.880721 9.3089 0.292787 12.2646C-0.295147 15.2204 0.00660208 18.2841 1.15988 21.0683C2.31315 23.8526 4.26615 26.2323 6.77191 27.9066C9.27766 29.5809 12.2236 30.4746 15.2373 30.4746C19.0114 30.4746 22.4808 29.0915 25.1532 26.7942L25.7862 27.4505V29.3025L37.5071 41L41 37.5071L29.3025 25.7862ZM15.2373 25.7862C9.40023 25.7862 4.6884 21.0743 4.6884 15.2373C4.6884 9.40023 9.40023 4.6884 15.2373 4.6884C21.0743 4.6884 25.7862 9.40023 25.7862 15.2373C25.7862 21.0743 21.0743 25.7862 15.2373 25.7862Z" fill="#FFFFE7"/>
</svg>
