<svg width="44" height="44" viewBox="0 0 44 44" fill="none" xmlns="http://www.w3.org/2000/svg">
<path d="M44 22C44 34.15 34.15 44 22 44C9.85 44 0 34.15 0 22C0 9.85 9.85 0 22 0C34.15 0 44 9.85 44 22ZM11 31H17.756C18.0656 31.8783 18.6401 32.6389 19.4003 33.1769C20.1604 33.7149 21.0687 34.0038 22 34.0038C22.9313 34.0038 23.8396 33.7149 24.5997 33.1769C25.3599 32.6389 25.9344 31.8783 26.244 31H33V27.764L31 23.764V19C31 16.6131 30.0518 14.3239 28.364 12.636C26.6761 10.9482 24.3869 10 22 10C19.6131 10 17.3239 10.9482 15.636 12.636C13.9482 14.3239 13 16.6131 13 19V23.764L11 27.764V31Z" fill="#3C7B24"/>
</svg>
