<svg width="92" height="51" viewBox="0 0 92 51" fill="none" xmlns="http://www.w3.org/2000/svg">
<path d="M35.0059 6.01604C38.4921 5.17547 42.0006 4.33171 45.5822 4.12196C49.1638 3.91222 52.8598 4.37143 56.0425 6.01445C56.7242 6.36562 57.471 6.95832 57.3407 7.70832C57.2263 8.36934 56.4922 8.71256 55.8455 8.91278C52.4117 9.9774 48.7602 10.068 45.1627 10.1506C41.7861 10.2285 38.3443 10.2968 35.1091 9.33545" fill="#3C7B24"/>
<path d="M35.0869 6.30822C40.9598 4.89242 47.2045 3.41466 53.1728 5.19115C53.8831 5.40249 54.579 5.65673 55.2528 5.96658C55.8057 6.22082 56.4398 6.49254 56.8291 6.98195C57.8222 8.2309 55.418 8.74255 54.6744 8.92846C51.6918 9.67529 48.6012 9.77063 45.5424 9.84214C42.0816 9.92318 38.5477 10.0344 35.1901 9.04605C34.8167 8.93641 34.6562 9.51957 35.0297 9.62921C38.1616 10.5508 41.4555 10.5381 44.6907 10.4666C47.9291 10.3951 51.204 10.3443 54.3772 9.62127C55.0971 9.4576 55.8455 9.28758 56.5208 8.98249C57.0388 8.74891 57.5409 8.34848 57.6363 7.75579C57.8651 6.34158 56.0155 5.62654 54.9969 5.20069C52.1765 4.02483 49.0605 3.6689 46.0255 3.79761C42.6854 3.94062 39.4026 4.65566 36.161 5.42791C35.7479 5.52643 35.3363 5.62495 34.9248 5.72505C34.5466 5.81563 34.7071 6.40038 35.0853 6.30822H35.0869Z" fill="black"/>
<path d="M35.1576 7.996C38.2387 8.19781 41.3753 8.38848 44.4214 7.7513C45.2874 7.57015 46.1359 7.3175 46.9575 6.98699C47.3134 6.84398 47.1577 6.25764 46.797 6.40383C43.9415 7.55585 40.8351 7.66708 37.7969 7.54155C36.9166 7.505 36.0379 7.44939 35.1576 7.39219C34.7683 7.36676 34.7699 7.97217 35.1576 7.99759V7.996Z" fill="black"/>
<path d="M40.6485 7.28053C40.7295 6.81337 40.8121 6.3462 40.8932 5.88063C40.9202 5.72491 40.8518 5.54694 40.6818 5.50881C40.534 5.47544 40.3386 5.5533 40.31 5.72014C40.229 6.18731 40.1463 6.65447 40.0653 7.12005C40.0383 7.27577 40.1066 7.45373 40.2766 7.49187C40.4244 7.52524 40.6199 7.44738 40.6485 7.28053Z" fill="black"/>
<path d="M40.0292 7.86902C40.8634 8.35207 41.7723 8.70483 42.7162 8.90504C42.8751 8.93841 43.0435 8.85737 43.088 8.6937C43.1293 8.54275 43.0372 8.35525 42.8767 8.32188C41.9805 8.13279 41.1256 7.80546 40.3343 7.34624C39.9974 7.15079 39.6923 7.67357 40.0292 7.86902Z" fill="black"/>
<path d="M43.9026 7.00433C43.9026 6.66905 43.9026 6.33378 43.9026 5.9985C43.9026 5.8396 43.7628 5.68864 43.6007 5.69659C43.4387 5.70453 43.2988 5.83007 43.2988 5.9985C43.2988 6.33378 43.2988 6.66905 43.2988 7.00433C43.2988 7.16323 43.4387 7.31418 43.6007 7.30624C43.7628 7.29829 43.9026 7.17276 43.9026 7.00433Z" fill="black"/>
<path d="M43.3719 7.43519C44.2331 8.18678 45.2485 8.74293 46.3512 9.05119C46.7262 9.15607 46.8867 8.57291 46.5117 8.46803C45.5122 8.18837 44.5827 7.69101 43.7993 7.00775C43.6769 6.8997 43.4926 6.88698 43.3719 7.00775C43.2622 7.11739 43.2479 7.32713 43.3719 7.43519Z" fill="black"/>
<path d="M35.1089 0.6039C35.5078 0.656337 35.8843 0.821592 36.199 1.07265C36.4802 1.2967 36.7106 1.57478 36.968 1.82584C37.2255 2.0769 37.494 2.28347 37.8309 2.36609C38.2662 2.47256 38.6937 2.35179 39.0925 2.17541C39.2419 2.11027 39.2768 1.89098 39.2006 1.76228C39.11 1.60814 38.9368 1.58749 38.7874 1.65422C38.4617 1.79723 38.1471 1.86238 37.8452 1.73685C37.8897 1.75592 37.7895 1.70666 37.78 1.70189C37.753 1.68759 37.7276 1.6717 37.7022 1.65581C37.6179 1.60179 37.6084 1.59225 37.5401 1.53346C37.4225 1.43177 37.3144 1.31895 37.2064 1.20613C36.9474 0.937589 36.6884 0.672227 36.3801 0.460891C35.9987 0.198707 35.5665 0.0620536 35.1105 0.00167185C34.9484 -0.0189851 34.8086 0.155804 34.8086 0.303581C34.8086 0.484726 34.9484 0.584832 35.1105 0.605489L35.1089 0.6039Z" fill="black"/>
<path d="M33.4957 18.2434C25.8479 18.1084 20.9252 20.0311 13.7239 22.6084C9.75297 24.029 5.79161 25.9469 3.10145 29.1948C0.41128 32.4443 -0.699426 37.2971 1.38533 40.9645C2.49286 42.911 4.34404 44.3188 6.25242 45.4883C15.9071 51.4057 28.4364 52.3559 38.8729 47.9608C39.7182 47.6049 40.5858 47.2092 41.5042 47.2283C42.1605 47.2426 42.7913 47.4714 43.4158 47.6764C47.3231 48.9603 51.4513 49.4131 55.5525 49.715C65.8524 50.4714 76.7163 50.187 85.7513 45.1848C87.9092 43.9899 90.0496 42.3818 90.8202 40.0397C91.5416 37.8453 90.8917 35.3776 89.6015 33.4612C88.3112 31.5449 86.4489 30.0957 84.5548 28.7737C72.7295 20.5236 58.3237 16.0316 43.9052 16.0999C40.3014 16.1174 37.9306 17.0326 33.4941 18.2419" fill="#FA5419"/>
<path d="M33.4949 17.942C30.0245 17.888 26.586 18.2868 23.2252 19.1528C19.8645 20.0188 16.5689 21.2471 13.3004 22.4404C10.186 23.5781 7.10967 25.0162 4.59906 27.2233C2.21398 29.3208 0.501045 32.1412 0.0894956 35.3224C-0.105951 36.8351 0.00845693 38.4003 0.534414 39.8383C1.09215 41.3637 2.09322 42.6635 3.30403 43.7329C5.77809 45.9178 8.91794 47.4639 11.9847 48.6254C18.2803 51.0105 25.2369 51.6096 31.8519 50.3749C33.4981 50.0682 35.122 49.6456 36.7063 49.1069C37.4896 48.84 38.2619 48.5444 39.0262 48.2234C39.9732 47.8246 40.9409 47.3972 41.9928 47.5831C42.9431 47.7515 43.8615 48.1503 44.7911 48.4062C45.7206 48.662 46.6454 48.8733 47.5845 49.0545C49.4929 49.4231 51.4267 49.6599 53.3621 49.8378C60.5396 50.4973 67.8998 50.7054 75.0058 49.3103C78.4507 48.6334 81.8257 47.5513 84.956 45.9512C87.6986 44.5497 90.7654 42.5507 91.3247 39.2679C91.9126 35.8229 89.839 32.6926 87.3506 30.5316C86.027 29.3827 84.5683 28.3864 83.1049 27.4267C81.6144 26.4479 80.0874 25.5278 78.5254 24.6666C72.2139 21.1851 65.3685 18.6713 58.307 17.2301C54.8128 16.5167 51.2646 16.0638 47.7037 15.8842C46.0019 15.7984 44.2762 15.7253 42.5744 15.8461C41.1316 15.9494 39.711 16.2259 38.3127 16.585C36.6713 17.0077 35.0505 17.5018 33.4155 17.9499C33.0404 18.0532 33.1993 18.6364 33.5759 18.5331C36.5569 17.7179 39.5347 16.6565 42.638 16.4467C44.2921 16.3339 45.9701 16.4023 47.6242 16.4849C49.3785 16.5723 51.1295 16.7248 52.8727 16.9441C59.788 17.8117 66.5873 19.7185 72.948 22.5644C76.1308 23.9881 79.2102 25.647 82.1467 27.5284C84.9783 29.3414 88.1451 31.342 89.8009 34.3738C90.6001 35.8372 91.0371 37.5915 90.713 39.252C90.3999 40.8521 89.4036 42.1614 88.1817 43.1959C86.9439 44.2446 85.4868 45.0327 84.0312 45.7367C82.4756 46.4898 80.8596 47.1159 79.2102 47.6307C72.5301 49.7091 65.4257 49.9475 58.4866 49.5963C54.7842 49.4088 51.0517 49.1387 47.4129 48.4062C46.4754 48.2171 45.5458 47.9946 44.6258 47.7324C43.7534 47.483 42.8906 47.1064 41.9912 46.9729C40.3053 46.7234 38.6973 47.7515 37.1639 48.3061C30.9525 50.5497 24.1246 50.9756 17.6638 49.6424C14.4572 48.9814 11.338 47.8913 8.4333 46.3754C5.61601 44.9056 2.46345 43.0052 1.21291 39.9225C0.0434148 37.0417 0.655177 33.7064 2.1679 31.0718C3.80297 28.2228 6.54875 26.2063 9.4296 24.7445C10.9185 23.9897 12.4709 23.3763 14.0409 22.8138C15.6902 22.2227 17.3364 21.6237 18.9969 21.0628C22.0398 20.0363 25.1432 19.1655 28.3386 18.7889C30.05 18.5871 31.7724 18.5172 33.4965 18.5442C33.8858 18.5506 33.8858 17.9452 33.4965 17.9388L33.4949 17.942Z" fill="black"/>
<path d="M35.4965 17.3851C34.4954 15.6419 34.8577 13.4316 35.0357 11.5296C35.2565 9.16202 35.3773 6.78489 35.398 4.40776C35.4107 3.06029 35.39 1.71123 35.3376 0.365357C35.3233 -0.0223578 34.7179 -0.0239468 34.7322 0.365357C34.8259 2.80923 34.8148 5.25787 34.6988 7.70015C34.6416 8.91255 34.5574 10.1234 34.4477 11.331C34.3524 12.3797 34.2269 13.4285 34.238 14.482C34.2491 15.5895 34.416 16.7161 34.9737 17.6886C35.1676 18.0254 35.6903 17.7219 35.4965 17.3835V17.3851Z" fill="black"/>
<path d="M23.631 26.6525C22.6235 27.5471 22.5393 29.0868 22.7109 30.4231C22.8762 31.7134 23.2337 33.0307 24.0791 34.019C25.3503 35.5079 27.4525 35.9624 29.4086 36.0641C30.8815 36.1403 32.3609 36.0656 33.8196 35.8432C34.719 35.7049 35.6755 35.4745 36.273 34.7865C37.0452 33.8967 36.9547 32.5683 36.7656 31.4051C36.6226 30.5248 36.4351 29.6159 35.8964 28.9056C35.3625 28.2017 34.5474 27.7759 33.737 27.4231C30.2603 25.9104 27.3746 26.2282 23.6151 26.7128" fill="#FFFFE7"/>
<path d="M23.419 26.4382C22.4847 27.2931 22.2813 28.6215 22.3544 29.8291C22.4354 31.1607 22.7342 32.5797 23.4746 33.7094C24.9969 36.0357 28.0398 36.4028 30.5902 36.3948C31.4101 36.3933 32.2284 36.344 33.042 36.2502C33.7316 36.1708 34.4387 36.0866 35.0981 35.8641C35.7131 35.656 36.2676 35.3223 36.6538 34.7915C37.0272 34.2767 37.1686 33.6316 37.1956 33.0071C37.2242 32.3477 37.1241 31.6851 37.0097 31.0368C36.8889 30.3551 36.7189 29.667 36.3661 29.0648C35.6606 27.8588 34.2671 27.2661 33.0102 26.8084C31.7056 26.3333 30.3311 26.0791 28.9455 26.0219C27.5456 25.9647 26.1442 26.0998 24.7554 26.2666C24.3756 26.3127 23.9958 26.3603 23.6161 26.4096C23.2363 26.4589 23.2299 27.0643 23.6161 27.015C26.168 26.6861 28.7803 26.354 31.3211 26.9387C32.5637 27.2248 33.8841 27.6681 34.9361 28.4054C36.042 29.1808 36.328 30.452 36.5107 31.7153C36.6712 32.8228 36.7078 34.2084 35.6749 34.9203C35.1935 35.2524 34.6103 35.3985 34.0414 35.5018C33.3232 35.6305 32.5939 35.7052 31.8661 35.7497C30.5187 35.8323 29.133 35.8276 27.8015 35.5845C26.6701 35.3779 25.5197 34.9822 24.6616 34.1877C23.6145 33.2184 23.1934 31.7995 23.0154 30.425C22.8581 29.211 22.8756 27.7571 23.8465 26.8688C24.1341 26.6051 23.705 26.1792 23.419 26.4414V26.4382Z" fill="black"/>
<path d="M49.5799 24.7946C47.4046 24.4863 45.0131 24.9709 43.4702 26.5361C41.9289 28.1013 41.5634 30.8645 43.0269 32.5028C43.9596 33.5467 45.3882 33.9678 46.7515 34.2872C49.0746 34.8306 51.563 35.1993 53.8066 34.3873C56.0503 33.5753 57.8967 31.2205 57.366 28.8942C57.0784 27.6357 56.1456 26.5854 55.0159 25.9609C53.8861 25.338 52.5752 25.1044 51.2849 25.0822C50.1917 25.0631 50.5317 25.3015 49.6228 24.6929" fill="#FFFFE7"/>
<path d="M49.6614 24.5135C46.9792 24.1464 43.771 24.9139 42.4156 27.4865C41.8245 28.6083 41.618 29.9717 41.9771 31.1999C42.3743 32.5617 43.4453 33.4627 44.7229 33.9902C45.4093 34.2731 46.1307 34.4558 46.8521 34.6195C47.6752 34.807 48.5062 34.9659 49.3468 35.0644C50.9819 35.2566 52.7044 35.1963 54.2362 34.54C56.7023 33.4833 58.5995 30.6041 57.3569 27.9648C56.7356 26.6443 55.4899 25.7243 54.1376 25.2523C53.3781 24.987 52.5725 24.8567 51.7716 24.809C51.4284 24.7884 51.082 24.7804 50.7388 24.8043C50.6577 24.809 50.5783 24.8154 50.4973 24.8201C50.4035 24.8265 50.448 24.8392 50.3622 24.8043C50.2096 24.7439 49.5597 24.3911 49.3484 24.3911C47.9374 24.3911 49.1498 24.7486 49.4724 24.9647C49.7949 25.1808 50.1095 25.4351 50.5131 25.424C51.0836 25.4081 51.6413 25.3906 52.2118 25.4494C53.6228 25.5956 55.0402 26.0897 56.0413 27.1274C56.9168 28.0347 57.3538 29.2804 57.063 30.5262C56.7817 31.7307 55.9554 32.7746 54.9448 33.4643C52.4342 35.1772 49.0417 34.575 46.2928 33.8631C45.0581 33.5437 43.7107 33.0622 42.9781 31.9452C42.3441 30.9775 42.2742 29.7476 42.592 28.6576C43.3372 26.0866 46.0576 24.9632 48.546 25.0219C48.8654 25.0299 49.1847 25.0521 49.5025 25.0966C49.6662 25.1189 49.8251 25.0569 49.8744 24.8853C49.9141 24.7439 49.8251 24.5357 49.663 24.5135H49.6614Z" fill="black"/>
<path d="M25.1275 29.0296C24.7478 29.3665 24.8876 29.8893 24.9528 30.393C25.0147 30.8792 25.1498 31.375 25.4676 31.7468C25.9459 32.3077 26.7372 32.4793 27.4745 32.5159C28.0291 32.5445 28.5868 32.5159 29.135 32.4333C29.4734 32.3808 29.8341 32.2934 30.0582 32.036C30.349 31.7007 30.314 31.2002 30.2441 30.7632C30.1901 30.4327 30.1202 30.0895 29.9168 29.8225C29.7166 29.5572 29.4083 29.3967 29.1032 29.2648C27.7939 28.6959 26.7086 28.8151 25.2928 28.9979" fill="black"/>
<path d="M46.769 27.4531C45.9633 27.3387 45.0767 27.5182 44.5046 28.0982C43.9326 28.6782 43.7975 29.7015 44.341 30.3085C44.6858 30.6946 45.2165 30.8519 45.7202 30.9695C46.5814 31.1713 47.5031 31.308 48.3341 31.0076C49.1652 30.7073 49.85 29.835 49.653 28.9721C49.5465 28.5066 49.2017 28.1173 48.7822 27.8853C48.3627 27.6533 47.8765 27.5961 47.3998 27.5595C46.7991 27.5134 46.4512 27.2862 46.8992 27.6167" fill="black"/>
<path d="M18.4945 40.3226C21.8981 40.8184 25.3192 41.1727 28.7514 41.3952C32.19 41.6176 35.6365 41.7098 39.0831 41.6907C42.5296 41.6716 45.6663 41.6621 48.9126 41.2267C51.8125 40.839 54.7299 40.0207 57.1102 38.2585C59.1679 36.7346 60.8618 34.5641 61.3592 32.0074C61.4211 31.6896 61.464 31.3686 61.4911 31.046C61.5244 30.6583 60.919 30.6599 60.8857 31.046C60.6711 33.5821 59.1775 35.8019 57.2484 37.3877C55.0477 39.1976 52.2813 40.0922 49.5021 40.5339C46.367 41.0329 43.1445 41.044 39.9761 41.079C36.6297 41.1155 33.2817 41.0488 29.94 40.8628C26.5777 40.6753 23.2202 40.3671 19.8833 39.9142C19.4733 39.8586 19.0633 39.7998 18.6534 39.741C18.272 39.6854 18.1084 40.2686 18.4929 40.3242L18.4945 40.3226Z" fill="black"/>
</svg>
